# xmcd
#
# Track frame offsets:
# 150
# 1618
# 19498
# 39092
# 52159
# 68945
# 73535
# 91377
# 100273
# 117031
# 130819
# 152700
#
# Disc length: 2364 seconds
#
# Revision: 1
# Processed by: cddbd v1.5.2PL0 Copyright (c) Steve Scherf et al.
# Submitted via: CedeCatalogueitor 2.6.0.6 http://personales.ya.com/cdcatalogueitor
#
DISCID=95093a0c
DTITLE=Linn Youki  - #04
DYEAR=1900
DGENRE=
TTITLE0=Pitagorin Junior 
TTITLE1=Ouch Miau
TTITLE2=Maglev
TTITLE3=Flasflas!
TTITLE4=Mairpuri
TTITLE5=Commoder 64
TTITLE6=Dun Dun Dun Dun Dun Dun Dun 
TTITLE7=Uh-la-la!
TTITLE8=Sardana Kraut
TTITLE9=Vic 20
TTITLE10=Copiloto
TTITLE11=Hotel
EXTD=
EXTT0=
EXTT1=
EXTT2=
EXTT3=
EXTT4=
EXTT5=
EXTT6=
EXTT7=
EXTT8=
EXTT9=
EXTT10=
EXTT11=
PLAYORDER=
